<?xml version="1.0" encoding="UTF-8" standalone="no"?>
<!DOCTYPE svg PUBLIC "-//W3C//DTD SVG 1.1//EN" "http://www.w3.org/Graphics/SVG/1.1/DTD/svg11.dtd">
<svg width="100%" height="100%" viewBox="0 0 2016 1291" version="1.1" xmlns="http://www.w3.org/2000/svg" xmlns:xlink="http://www.w3.org/1999/xlink" xml:space="preserve" xmlns:serif="http://www.serif.com/" style="fill-rule:evenodd;clip-rule:evenodd;stroke-linecap:round;stroke-linejoin:round;stroke-miterlimit:1.5;">
    <g id="Artboard1" transform="matrix(1,0,0,1,-295.276,-837.814)">
        <rect x="295.276" y="837.814" width="2015.17" height="1290.31" style="fill:none;"/>
        <g transform="matrix(1,0,0,1,122.633,-29.0717)">
            <path d="M350.286,1753.94C350.286,1753.94 681.318,1441.59 645.723,1295.65C610.128,1149.71 585.212,1135.48 560.295,1192.43C535.379,1249.38 592.331,1582.19 506.903,1753.94C506.903,1753.94 556.736,1562.62 681.318,1566.17C805.9,1569.73 642.164,1763.73 738.27,1753.94C834.376,1744.15 1076.42,1616.01 994.553,1587.53C912.685,1559.06 845.054,1701.11 987.434,1724.41C1129.81,1747.71 1204.56,1697.88 1240.16,1580.41C1275.75,1462.95 1204.56,1153.27 1151.17,1277.86C1151.17,1277.86 1119.13,1693.99 1190.33,1724.41C1261.51,1754.83 1450.17,1644.48 1460.85,1587.53C1471.52,1530.58 1411.01,1149.71 1364.74,1263.62C1364.74,1263.62 1329.14,1718.91 1428.81,1724.41C1528.48,1729.91 1571.19,1537.7 1642.38,1541.26C1713.57,1544.82 1795.44,1736.71 1638.82,1724.41C1482.2,1712.11 1542.71,1551.94 1763.4,1548.38C1984.09,1544.82 2009.01,1523.46 2001.89,1445.15" style="fill:none;stroke:black;stroke-width:1px;"/>
        </g>
    </g>
</svg>
